<svg width="960" height="1200" viewBox="0 0 960 1200" fill="none" xmlns="http://www.w3.org/2000/svg">
  <rect width="960" height="1200" fill="#F7EDE0"/>
  <rect x="48" y="48" width="864" height="1104" rx="44" fill="#FFF8F0"/>
  <circle cx="480" cy="360" r="160" fill="#DFC2B1"/>
  <path d="M260 908C260 739.779 396.327 603 564.5 603H395.5C563.673 603 700 739.779 700 908V952H260V908Z" fill="#C88B72"/>
  <path d="M302 324C302 225.68 381.68 146 480 146C578.32 146 658 225.68 658 324V450H302V324Z" fill="#B5674C"/>
  <path d="M350 365C350 292.651 408.651 234 481 234C553.349 234 612 292.651 612 365V419C612 491.349 553.349 550 481 550C408.651 550 350 491.349 350 419V365Z" fill="#E5C4B0"/>
  <path d="M330 948C330 799.99 449.99 680 598 680H362C510.01 680 630 799.99 630 948V972H330V948Z" fill="#9B4E36"/>
  <rect x="150" y="1018" width="660" height="30" rx="15" fill="#E5D0C2"/>
  <path d="M288 188C326 117 401.357 68 488.5 68C613.593 68 715 169.407 715 294.5V333H664V303C664 194.788 576.212 107 468 107C394.214 107 329.952 147.77 296.184 208.045L288 188Z" fill="#7A3D2C"/>
  <text x="480" y="1102" text-anchor="middle" fill="#6A615F" font-family="Manrope, Arial, sans-serif" font-size="30" font-weight="700">
    Add Amy portrait here
  </text>
</svg>
